# xmcd
#
# Track frame offsets:
#	150
#	12341
#	27589
#	49466
#	66492
#	83634
#	99835
#	120148
#	137232
#	156525
#	172576
#	186939
#	206514
#	223346
#	236336
#	263722
#
# Disc length: 4099 seconds
#
# Revision: 5
# Processed by: cddbd v1.5.2PL0 Copyright (c) Steve Scherf et al.
# Submitted via: audiograbber 1.83.01
#
DISCID=de100110
DTITLE=All Star Karaoke - ASK-59 Mixed Country Volume 7 Disc 1
DYEAR=2006
DGENRE=Karaoke
TTITLE0=Blake Shelton - Nobody But Me
TTITLE1=Brooks and Dunn - Play Something Country
TTITLE2=Brooks and Dunn - Believe
TTITLE3=Carrie Underwood - Jesus, Take The Wheel
TTITLE4=Chris Cagle - Wal-Mart Parking Lot
TTITLE5=Daniell Pick - I Don't
TTITLE6=Dierks Bentley - Come A Little Closer
TTITLE7=Dierks Bentley - Settle For A Slow Down
TTITLE8=Faith Hill - Like We Never Loved At All
TTITLE9=Gary Allan - Life Ain't Always Beautiful
TTITLE10=George Strait - She Let Herself Go
TTITLE11=George Strait - The Seashores Of Old Mexico
TTITLE12=Gretchen Wilson - All Jacked Up
TTITLE13=Gretchan Wilson - I Don't Feel Like Loving You Today
TTITLE14=Gretchen Wilson - One Bud Wiser
TTITLE15=Data Track - Data Track
EXTD=disk 1
EXTT0=
EXTT1=
EXTT2=
EXTT3=
EXTT4=
EXTT5=
EXTT6=
EXTT7=
EXTT8=
EXTT9=
EXTT10=
EXTT11=
EXTT12=
EXTT13=
EXTT14=
EXTT15=
PLAYORDER=
